<svg width="165" height="48" viewBox="0 0 165 48" fill="none" xmlns="http://www.w3.org/2000/svg">
<g filter="url(#filter0_i_95_1354)">
<path fill-rule="evenodd" clip-rule="evenodd" d="M6.92751 6.92751C3.99951 9.85951 3.99951 14.5715 3.99951 23.9995C3.99951 33.4275 3.99951 38.1415 6.92751 41.0695C9.85951 43.9995 14.5715 43.9995 23.9995 43.9995C33.4275 43.9995 38.1415 43.9995 41.0695 41.0695C43.9995 38.1435 43.9995 33.4275 43.9995 23.9995C43.9995 14.5715 43.9995 9.85751 41.0695 6.92751C38.1435 3.99951 33.4275 3.99951 23.9995 3.99951C14.5715 3.99951 9.85751 3.99951 6.92751 6.92751ZM12.8475 19.0395C13.1022 18.7341 13.4677 18.5423 13.8638 18.5063C14.2598 18.4703 14.6539 18.593 14.9595 18.8475L15.5135 19.3075C16.7235 20.3155 17.7535 21.1735 18.4655 21.9635C19.2235 22.8035 19.8135 23.7655 19.8135 24.9995C19.8135 26.2335 19.2235 27.1975 18.4655 28.0355C17.7535 28.8255 16.7235 29.6835 15.5135 30.6915L14.9595 31.1515C14.809 31.2832 14.6336 31.3835 14.4438 31.4464C14.2539 31.5093 14.0534 31.5336 13.854 31.5179C13.6546 31.5022 13.4604 31.4468 13.2827 31.3549C13.1051 31.263 12.9476 31.1365 12.8195 30.9828C12.6915 30.8292 12.5955 30.6515 12.5371 30.4602C12.4788 30.2689 12.4593 30.0678 12.4798 29.8688C12.5003 29.6699 12.5603 29.477 12.6565 29.3016C12.7526 29.1262 12.8828 28.9718 13.0395 28.8475L13.5075 28.4575C14.8255 27.3575 15.6875 26.6375 16.2395 26.0255C16.7635 25.4455 16.8135 25.1715 16.8135 24.9995C16.8135 24.8275 16.7635 24.5555 16.2395 23.9735C15.6855 23.3615 14.8255 22.6395 13.5075 21.5415L13.0395 21.1515C12.7341 20.8968 12.5423 20.5313 12.5063 20.1353C12.4703 19.7392 12.593 19.3451 12.8475 19.0395ZM35.4995 29.9995C35.4995 30.3973 35.3415 30.7789 35.0602 31.0602C34.7789 31.3415 34.3973 31.4995 33.9995 31.4995H23.9995C23.6017 31.4995 23.2202 31.3415 22.9389 31.0602C22.6575 30.7789 22.4995 30.3973 22.4995 29.9995C22.4995 29.6017 22.6575 29.2202 22.9389 28.9389C23.2202 28.6576 23.6017 28.4995 23.9995 28.4995H33.9995C34.3973 28.4995 34.7789 28.6576 35.0602 28.9389C35.3415 29.2202 35.4995 29.6017 35.4995 29.9995Z" fill="url(#paint0_linear_95_1354)" fill-opacity="0.9"/>
</g>
<path d="M52.8213 39.1C52.2746 39.1 51.808 39 51.4213 38.8C51.0346 38.6 50.6913 38.31 50.3913 37.93L51.0313 37.29C51.2513 37.5967 51.5046 37.83 51.7913 37.99C52.078 38.1433 52.4313 38.22 52.8513 38.22C53.2646 38.22 53.5946 38.13 53.8413 37.95C54.0946 37.77 54.2213 37.5233 54.2213 37.21C54.2213 36.95 54.1613 36.74 54.0413 36.58C53.9213 36.42 53.758 36.29 53.5513 36.19C53.3513 36.0833 53.1313 35.99 52.8913 35.91C52.6513 35.8233 52.4113 35.7333 52.1713 35.64C51.9313 35.54 51.7113 35.42 51.5113 35.28C51.3113 35.1333 51.148 34.9433 51.0213 34.71C50.9013 34.4767 50.8413 34.1833 50.8413 33.83C50.8413 33.4367 50.9346 33.1033 51.1213 32.83C51.3146 32.55 51.5746 32.3367 51.9013 32.19C52.2346 32.0367 52.608 31.96 53.0213 31.96C53.4746 31.96 53.8813 32.05 54.2413 32.23C54.6013 32.4033 54.8946 32.6333 55.1213 32.92L54.4813 33.56C54.2746 33.32 54.0513 33.14 53.8113 33.02C53.578 32.9 53.308 32.84 53.0013 32.84C52.628 32.84 52.3313 32.9233 52.1113 33.09C51.8913 33.25 51.7813 33.4767 51.7813 33.77C51.7813 34.0033 51.8413 34.1933 51.9613 34.34C52.088 34.48 52.2513 34.6 52.4513 34.7C52.6513 34.8 52.8713 34.8933 53.1113 34.98C53.358 35.06 53.6013 35.15 53.8413 35.25C54.0813 35.35 54.3013 35.4767 54.5013 35.63C54.7013 35.7833 54.8613 35.9833 54.9813 36.23C55.108 36.47 55.1713 36.7733 55.1713 37.14C55.1713 37.7533 54.958 38.2333 54.5313 38.58C54.1113 38.9267 53.5413 39.1 52.8213 39.1ZM59.6275 39.1C59.1341 39.1 58.6741 39.01 58.2475 38.83C57.8208 38.6433 57.4475 38.3867 57.1275 38.06C56.8075 37.7267 56.5575 37.3433 56.3775 36.91C56.2041 36.4767 56.1175 36.0133 56.1175 35.52C56.1175 35.02 56.2041 34.5567 56.3775 34.13C56.5575 33.6967 56.8041 33.3167 57.1175 32.99C57.4375 32.6633 57.8075 32.41 58.2275 32.23C58.6541 32.05 59.1141 31.96 59.6075 31.96C60.1008 31.96 60.5575 32.05 60.9775 32.23C61.4041 32.41 61.7775 32.6633 62.0975 32.99C62.4175 33.3167 62.6675 33.6967 62.8475 34.13C63.0275 34.5633 63.1175 35.03 63.1175 35.53C63.1175 36.0233 63.0275 36.4867 62.8475 36.92C62.6675 37.3533 62.4175 37.7333 62.0975 38.06C61.7841 38.3867 61.4141 38.6433 60.9875 38.83C60.5675 39.01 60.1141 39.1 59.6275 39.1ZM59.6075 38.2C60.1075 38.2 60.5441 38.0867 60.9175 37.86C61.2975 37.6267 61.5975 37.31 61.8175 36.91C62.0375 36.5033 62.1475 36.04 62.1475 35.52C62.1475 35.1333 62.0841 34.78 61.9575 34.46C61.8308 34.1333 61.6541 33.85 61.4275 33.61C61.2008 33.37 60.9341 33.1867 60.6275 33.06C60.3208 32.9267 59.9808 32.86 59.6075 32.86C59.1141 32.86 58.6775 32.9733 58.2975 33.2C57.9241 33.4267 57.6275 33.74 57.4075 34.14C57.1941 34.54 57.0875 35 57.0875 35.52C57.0875 35.9067 57.1475 36.2667 57.2675 36.6C57.3941 36.9267 57.5675 37.21 57.7875 37.45C58.0141 37.6833 58.2808 37.8667 58.5875 38C58.9008 38.1333 59.2408 38.2 59.6075 38.2ZM64.4069 39V32.06H65.3469V39H64.4069ZM65.0469 35.95V35.09H68.6669V35.95H65.0469ZM65.0469 32.92V32.06H68.8369V32.92H65.0469ZM71.6864 39V32.26H72.6264V39H71.6864ZM69.3264 32.92V32.06H74.9764V32.92H69.3264ZM77.5636 39L75.2936 32.06H76.2336L78.0336 37.72H77.7636L79.5336 32.06H80.2136L81.9836 37.72H81.7236L83.5236 32.06H84.4536L82.1936 39H81.5236L79.7436 33.35H80.0036L78.2336 39H77.5636ZM84.2485 39L87.0885 32.06H87.7685L90.5985 39H89.5785L87.2485 33.13H87.5985L85.2485 39H84.2485ZM85.5985 37.43V36.61H89.2485V37.43H85.5985ZM92.2732 35.98V35.19H94.1532C94.5599 35.19 94.8732 35.0867 95.0932 34.88C95.3132 34.6733 95.4232 34.3933 95.4232 34.04C95.4232 33.7067 95.3132 33.43 95.0932 33.21C94.8799 32.99 94.5699 32.88 94.1632 32.88H92.2732V32.06H94.1932C94.6332 32.06 95.0166 32.1467 95.3432 32.32C95.6699 32.4867 95.9199 32.7167 96.0932 33.01C96.2732 33.3033 96.3632 33.64 96.3632 34.02C96.3632 34.4133 96.2732 34.7567 96.0932 35.05C95.9199 35.3433 95.6699 35.5733 95.3432 35.74C95.0166 35.9 94.6332 35.98 94.1932 35.98H92.2732ZM91.6432 39V32.06H92.5832V39H91.6432ZM95.6432 39L93.1232 35.89L94.0132 35.58L96.8332 39H95.6432ZM97.8054 39V32.06H98.7454V39H97.8054ZM98.4454 39V38.14H102.425V39H98.4454ZM98.4454 35.86V35.04H102.095V35.86H98.4454ZM98.4454 32.92V32.06H102.375V32.92H98.4454ZM108.934 39.1C108.434 39.1 107.971 39.01 107.544 38.83C107.117 38.6433 106.744 38.3867 106.424 38.06C106.111 37.7333 105.867 37.3533 105.694 36.92C105.521 36.4867 105.434 36.0233 105.434 35.53C105.434 35.03 105.521 34.5633 105.694 34.13C105.867 33.6967 106.111 33.32 106.424 33C106.744 32.6733 107.114 32.42 107.534 32.24C107.961 32.0533 108.424 31.96 108.924 31.96C109.471 31.96 109.951 32.0533 110.364 32.24C110.777 32.4267 111.144 32.68 111.464 33L110.814 33.65C110.594 33.4033 110.324 33.21 110.004 33.07C109.691 32.93 109.331 32.86 108.924 32.86C108.557 32.86 108.221 32.9267 107.914 33.06C107.607 33.1867 107.341 33.37 107.114 33.61C106.887 33.85 106.711 34.1333 106.584 34.46C106.464 34.7867 106.404 35.1433 106.404 35.53C106.404 35.9167 106.464 36.2733 106.584 36.6C106.711 36.9267 106.887 37.21 107.114 37.45C107.341 37.69 107.607 37.8767 107.914 38.01C108.221 38.1367 108.557 38.2 108.924 38.2C109.357 38.2 109.734 38.13 110.054 37.99C110.374 37.8433 110.644 37.6467 110.864 37.4L111.514 38.04C111.194 38.3733 110.817 38.6333 110.384 38.82C109.957 39.0067 109.474 39.1 108.934 39.1ZM115.545 39.1C115.052 39.1 114.592 39.01 114.165 38.83C113.739 38.6433 113.365 38.3867 113.045 38.06C112.725 37.7267 112.475 37.3433 112.295 36.91C112.122 36.4767 112.035 36.0133 112.035 35.52C112.035 35.02 112.122 34.5567 112.295 34.13C112.475 33.6967 112.722 33.3167 113.035 32.99C113.355 32.6633 113.725 32.41 114.145 32.23C114.572 32.05 115.032 31.96 115.525 31.96C116.019 31.96 116.475 32.05 116.895 32.23C117.322 32.41 117.695 32.6633 118.015 32.99C118.335 33.3167 118.585 33.6967 118.765 34.13C118.945 34.5633 119.035 35.03 119.035 35.53C119.035 36.0233 118.945 36.4867 118.765 36.92C118.585 37.3533 118.335 37.7333 118.015 38.06C117.702 38.3867 117.332 38.6433 116.905 38.83C116.485 39.01 116.032 39.1 115.545 39.1ZM115.525 38.2C116.025 38.2 116.462 38.0867 116.835 37.86C117.215 37.6267 117.515 37.31 117.735 36.91C117.955 36.5033 118.065 36.04 118.065 35.52C118.065 35.1333 118.002 34.78 117.875 34.46C117.749 34.1333 117.572 33.85 117.345 33.61C117.119 33.37 116.852 33.1867 116.545 33.06C116.239 32.9267 115.899 32.86 115.525 32.86C115.032 32.86 114.595 32.9733 114.215 33.2C113.842 33.4267 113.545 33.74 113.325 34.14C113.112 34.54 113.005 35 113.005 35.52C113.005 35.9067 113.065 36.2667 113.185 36.6C113.312 36.9267 113.485 37.21 113.705 37.45C113.932 37.6833 114.199 37.8667 114.505 38C114.819 38.1333 115.159 38.2 115.525 38.2ZM120.325 39V32.06H120.985L123.925 36.89H123.475L126.415 32.06H127.075V39H126.135V33.71L126.355 33.77L124.035 37.58H123.375L121.055 33.77L121.265 33.71V39H120.325ZM129.344 36.3V35.48H131.234C131.494 35.48 131.724 35.4267 131.924 35.32C132.13 35.2133 132.29 35.0633 132.404 34.87C132.524 34.6767 132.584 34.4467 132.584 34.18C132.584 33.9133 132.524 33.6833 132.404 33.49C132.29 33.2967 132.13 33.1467 131.924 33.04C131.724 32.9333 131.494 32.88 131.234 32.88H129.344V32.06H131.294C131.72 32.06 132.1 32.1467 132.434 32.32C132.774 32.4933 133.04 32.74 133.234 33.06C133.434 33.3733 133.534 33.7467 133.534 34.18C133.534 34.6067 133.434 34.98 133.234 35.3C133.04 35.6133 132.774 35.86 132.434 36.04C132.1 36.2133 131.72 36.3 131.294 36.3H129.344ZM128.714 39V32.06H129.654V39H128.714ZM133.604 39L136.444 32.06H137.124L139.954 39H138.934L136.604 33.13H136.954L134.604 39H133.604ZM134.954 37.43V36.61H138.604V37.43H134.954ZM140.999 39V32.06H141.659L141.939 33.15V39H140.999ZM145.799 39L141.539 33.31L141.659 32.06L145.929 37.74L145.799 39ZM145.799 39L145.519 37.97V32.06H146.459V39H145.799ZM150.298 36.18L147.568 32.06H148.658L150.858 35.43H150.368L152.578 32.06H153.648L150.898 36.18H150.298ZM150.138 39V35.56H151.078V39H150.138Z" fill="url(#paint1_linear_95_1354)" fill-opacity="0.9"/>
<path d="M50 24V16.5H65V24H62.5V19H52.5V24H50ZM52.5 14C51.7969 14 51.2044 13.7591 50.7227 13.2773C50.2409 12.7826 50 12.1901 50 11.5H65C65 12.2031 64.7526 12.7956 64.2578 13.2773C63.763 13.7591 63.1771 14 62.5 14H52.5ZM67.5 24V16.5H78.75C79.0885 16.5 79.3815 16.3828 79.6289 16.1484C79.8763 15.901 80 15.6016 80 15.25V14H67.5V11.5H82.5V16.5C82.5 17.2031 82.2526 17.7956 81.7578 18.2773C81.263 18.7591 80.6771 19 80 19H70V24H67.5ZM85 24V11.5H87.5V24H85ZM92.5 24V14L90 11.5H93.75L102.5 20.25V11.5H105V24H102.5L95 16.5V24H92.5ZM107.5 24V11.5H110V21.5H122.5C122.5 22.2031 122.253 22.7956 121.758 23.2773C121.263 23.7591 120.677 24 120 24H107.5ZM125 24V11.5H127.5V24H125ZM132.5 24V14L130 11.5H133.75L142.5 20.25V11.5H145V24H142.5L135 16.5V24H132.5ZM150 24C149.297 24 148.704 23.7591 148.223 23.2773C147.741 22.7826 147.5 22.1901 147.5 21.5H162.5C162.5 22.2031 162.253 22.7956 161.758 23.2773C161.263 23.7591 160.677 24 160 24H150ZM150 19C149.297 19 148.704 18.7591 148.223 18.2773C147.741 17.7826 147.5 17.1901 147.5 16.5H162.5C162.5 17.2031 162.253 17.7956 161.758 18.2773C161.263 18.7591 160.677 19 160 19H150ZM150 14C149.297 14 148.704 13.7591 148.223 13.2773C147.741 12.7826 147.5 12.1901 147.5 11.5H162.5C162.5 12.2031 162.253 12.7956 161.758 13.2773C161.263 13.7591 160.677 14 160 14H150Z" fill="url(#paint2_linear_95_1354)" fill-opacity="0.9"/>
<defs>
<filter id="filter0_i_95_1354" x="3.99951" y="3.99951" width="44" height="44" filterUnits="userSpaceOnUse" color-interpolation-filters="sRGB">
<feFlood flood-opacity="0" result="BackgroundImageFix"/>
<feBlend mode="normal" in="SourceGraphic" in2="BackgroundImageFix" result="shape"/>
<feColorMatrix in="SourceAlpha" type="matrix" values="0 0 0 0 0 0 0 0 0 0 0 0 0 0 0 0 0 0 127 0" result="hardAlpha"/>
<feOffset dx="4" dy="4"/>
<feGaussianBlur stdDeviation="8.7"/>
<feComposite in2="hardAlpha" operator="arithmetic" k2="-1" k3="1"/>
<feColorMatrix type="matrix" values="0 0 0 0 1 0 0 0 0 1 0 0 0 0 1 0 0 0 0.28 0"/>
<feBlend mode="normal" in2="shape" result="effect1_innerShadow_95_1354"/>
</filter>
<linearGradient id="paint0_linear_95_1354" x1="19" y1="53.5" x2="59.4386" y2="66.4305" gradientUnits="userSpaceOnUse">
<stop offset="0.0263481" stop-color="#714DFF"/>
<stop offset="0.7797" stop-color="#E151FF"/>
<stop offset="1" stop-color="#FFF759"/>
</linearGradient>
<linearGradient id="paint1_linear_95_1354" x1="53.5" y1="35" x2="155.731" y2="66.6021" gradientUnits="userSpaceOnUse">
<stop offset="0.0263481" stop-color="#714DFF"/>
<stop offset="0.7797" stop-color="#E151FF"/>
<stop offset="1" stop-color="#FFF759"/>
</linearGradient>
<linearGradient id="paint2_linear_95_1354" x1="53.5" y1="24" x2="181.285" y2="66.3883" gradientUnits="userSpaceOnUse">
<stop offset="0.0263481" stop-color="#714DFF"/>
<stop offset="0.7797" stop-color="#E151FF"/>
<stop offset="1" stop-color="#FFF759"/>
</linearGradient>
</defs>
</svg>
