<svg width="58" height="1202" viewBox="0 0 58 1202" fill="none" xmlns="http://www.w3.org/2000/svg">
<rect width="58" height="58" rx="29" fill="#060E29"/>
<path d="M25.4906 35.24C24.6746 35.24 23.9546 35.0667 23.3306 34.72C22.7066 34.368 22.2186 33.88 21.8666 33.256C21.5199 32.632 21.3466 31.912 21.3466 31.096V27.384C21.3466 26.568 21.5199 25.848 21.8666 25.224C22.2186 24.6 22.7066 24.1147 23.3306 23.768C23.9546 23.416 24.6746 23.24 25.4906 23.24C26.3066 23.24 27.0239 23.416 27.6426 23.768C28.2666 24.1147 28.7546 24.6 29.1066 25.224C29.4586 25.848 29.6346 26.568 29.6346 27.384V31.096C29.6346 31.912 29.4586 32.632 29.1066 33.256C28.7546 33.88 28.2666 34.368 27.6426 34.72C27.0239 35.0667 26.3066 35.24 25.4906 35.24ZM25.4906 33.408C25.8959 33.408 26.2639 33.312 26.5946 33.12C26.9252 32.9227 27.1866 32.6613 27.3786 32.336C27.5706 32.0053 27.6666 31.6373 27.6666 31.232V27.24C27.6666 26.8293 27.5706 26.4613 27.3786 26.136C27.1866 25.8053 26.9252 25.544 26.5946 25.352C26.2639 25.1547 25.8959 25.056 25.4906 25.056C25.0852 25.056 24.7172 25.1547 24.3866 25.352C24.0559 25.544 23.7946 25.8053 23.6026 26.136C23.4106 26.4613 23.3146 26.8293 23.3146 27.24V31.232C23.3146 31.6373 23.4106 32.0053 23.6026 32.336C23.7946 32.6613 24.0559 32.9227 24.3866 33.12C24.7172 33.312 25.0852 33.408 25.4906 33.408ZM33.8778 35V25.584L31.7178 26.904V24.776L33.8778 23.48H35.8458V35H33.8778Z" fill="#FCFAFF"/>
<line x1="29.5" y1="58" x2="29.5" y2="228" stroke="#060E29"/>
<line x1="29.5" y1="228" x2="29.5" y2="321.333" stroke="#00393D"/>
<rect x="0.5" y="321.833" width="57" height="57" rx="28.5" fill="#002629"/>
<rect x="0.5" y="321.833" width="57" height="57" rx="28.5" stroke="#00393D"/>
<path d="M24.2328 356.573C23.4168 356.573 22.6968 356.4 22.0728 356.053C21.4488 355.701 20.9608 355.213 20.6088 354.589C20.2621 353.965 20.0888 353.245 20.0888 352.429V348.717C20.0888 347.901 20.2621 347.181 20.6088 346.557C20.9608 345.933 21.4488 345.448 22.0728 345.101C22.6968 344.749 23.4168 344.573 24.2328 344.573C25.0488 344.573 25.7661 344.749 26.3848 345.101C27.0088 345.448 27.4968 345.933 27.8488 346.557C28.2008 347.181 28.3767 347.901 28.3767 348.717V352.429C28.3767 353.245 28.2008 353.965 27.8488 354.589C27.4968 355.213 27.0088 355.701 26.3848 356.053C25.7661 356.4 25.0488 356.573 24.2328 356.573ZM24.2328 354.741C24.6381 354.741 25.0061 354.645 25.3368 354.453C25.6674 354.256 25.9288 353.995 26.1208 353.669C26.3128 353.339 26.4088 352.971 26.4088 352.565V348.573C26.4088 348.163 26.3128 347.795 26.1208 347.469C25.9288 347.139 25.6674 346.877 25.3368 346.685C25.0061 346.488 24.6381 346.389 24.2328 346.389C23.8274 346.389 23.4594 346.488 23.1288 346.685C22.7981 346.877 22.5368 347.139 22.3448 347.469C22.1528 347.795 22.0568 348.163 22.0568 348.573V352.565C22.0568 352.971 22.1528 353.339 22.3448 353.669C22.5368 353.995 22.7981 354.256 23.1288 354.453C23.4594 354.645 23.8274 354.741 24.2328 354.741ZM30.3 356.317V354.637L35.228 350.245C35.612 349.904 35.8787 349.581 36.028 349.277C36.1773 348.973 36.252 348.68 36.252 348.397C36.252 348.013 36.1693 347.672 36.004 347.373C35.8387 347.069 35.6093 346.829 35.316 346.653C35.028 346.477 34.6947 346.389 34.316 346.389C33.916 346.389 33.5613 346.483 33.252 346.669C32.948 346.851 32.7107 347.093 32.54 347.397C32.3693 347.701 32.2893 348.029 32.3 348.381H30.316C30.316 347.613 30.4867 346.944 30.828 346.373C31.1747 345.803 31.6493 345.36 32.252 345.045C32.86 344.731 33.5613 344.573 34.356 344.573C35.092 344.573 35.7533 344.739 36.34 345.069C36.9267 345.395 37.388 345.848 37.724 346.429C38.06 347.005 38.228 347.669 38.228 348.421C38.228 348.971 38.1533 349.432 38.004 349.805C37.8547 350.179 37.6307 350.523 37.332 350.837C37.0387 351.152 36.6733 351.501 36.236 351.885L32.74 354.981L32.564 354.501H38.228V356.317H30.3Z" fill="#FCFAFF"/>
<line x1="29.5" y1="379.333" x2="29.5" y2="642.667" stroke="#00393D"/>
<rect x="0.5" y="643.167" width="57" height="57" rx="28.5" fill="#002629"/>
<rect x="0.5" y="643.167" width="57" height="57" rx="28.5" stroke="#00393D"/>
<path d="M24.3499 677.907C23.5339 677.907 22.8139 677.733 22.1899 677.387C21.5659 677.035 21.0779 676.547 20.7259 675.923C20.3793 675.299 20.2059 674.579 20.2059 673.763V670.051C20.2059 669.235 20.3793 668.515 20.7259 667.891C21.0779 667.267 21.5659 666.781 22.1899 666.435C22.8139 666.083 23.5339 665.907 24.3499 665.907C25.1659 665.907 25.8833 666.083 26.5019 666.435C27.1259 666.781 27.6139 667.267 27.9659 667.891C28.3179 668.515 28.4939 669.235 28.4939 670.051V673.763C28.4939 674.579 28.3179 675.299 27.9659 675.923C27.6139 676.547 27.1259 677.035 26.5019 677.387C25.8833 677.733 25.1659 677.907 24.3499 677.907ZM24.3499 676.075C24.7553 676.075 25.1233 675.979 25.4539 675.787C25.7846 675.589 26.0459 675.328 26.2379 675.003C26.4299 674.672 26.5259 674.304 26.5259 673.899V669.907C26.5259 669.496 26.4299 669.128 26.2379 668.803C26.0459 668.472 25.7846 668.211 25.4539 668.019C25.1233 667.821 24.7553 667.723 24.3499 667.723C23.9446 667.723 23.5766 667.821 23.2459 668.019C22.9153 668.211 22.6539 668.472 22.4619 668.803C22.2699 669.128 22.1739 669.496 22.1739 669.907V673.899C22.1739 674.304 22.2699 674.672 22.4619 675.003C22.6539 675.328 22.9153 675.589 23.2459 675.787C23.5766 675.979 23.9446 676.075 24.3499 676.075ZM34.0332 677.883C33.4572 677.883 32.9132 677.771 32.4012 677.547C31.8892 677.323 31.4439 677.005 31.0652 676.595C30.6919 676.184 30.4225 675.699 30.2572 675.139L32.1212 674.635C32.2545 675.093 32.4972 675.448 32.8492 675.699C33.2065 675.944 33.5985 676.064 34.0252 676.059C34.4039 676.059 34.7425 675.971 35.0412 675.795C35.3399 675.619 35.5745 675.381 35.7452 675.083C35.9159 674.779 36.0012 674.44 36.0012 674.067C36.0012 673.496 35.8172 673.019 35.4492 672.635C35.0812 672.251 34.6065 672.059 34.0252 672.059C33.8492 672.059 33.6759 672.083 33.5052 672.131C33.3399 672.179 33.1799 672.245 33.0252 672.331L32.1452 670.811L36.0172 667.499L36.1852 667.963H30.7052V666.147H37.7692V667.971L34.6572 670.963L34.6412 670.395C35.3399 670.443 35.9345 670.637 36.4252 670.979C36.9212 671.32 37.2999 671.76 37.5612 672.299C37.8279 672.837 37.9612 673.427 37.9612 674.067C37.9612 674.792 37.7825 675.443 37.4252 676.019C37.0732 676.595 36.5985 677.051 36.0012 677.387C35.4092 677.717 34.7532 677.883 34.0332 677.883Z" fill="#FCFAFF"/>
<line x1="29.5" y1="700.667" x2="29.5" y2="964" stroke="#00393D"/>
<rect x="0.5" y="964.5" width="57" height="57" rx="28.5" fill="#002629"/>
<rect x="0.5" y="964.5" width="57" height="57" rx="28.5" stroke="#00393D"/>
<path d="M24.1312 999.24C23.3152 999.24 22.5952 999.067 21.9712 998.72C21.3472 998.368 20.8592 997.88 20.5072 997.256C20.1605 996.632 19.9872 995.912 19.9872 995.096V991.384C19.9872 990.568 20.1605 989.848 20.5072 989.224C20.8592 988.6 21.3472 988.115 21.9712 987.768C22.5952 987.416 23.3152 987.24 24.1312 987.24C24.9472 987.24 25.6645 987.416 26.2832 987.768C26.9072 988.115 27.3952 988.6 27.7472 989.224C28.0992 989.848 28.2752 990.568 28.2752 991.384V995.096C28.2752 995.912 28.0992 996.632 27.7472 997.256C27.3952 997.88 26.9072 998.368 26.2832 998.72C25.6645 999.067 24.9472 999.24 24.1312 999.24ZM24.1312 997.408C24.5365 997.408 24.9045 997.312 25.2352 997.12C25.5659 996.923 25.8272 996.661 26.0192 996.336C26.2112 996.005 26.3072 995.637 26.3072 995.232V991.24C26.3072 990.829 26.2112 990.461 26.0192 990.136C25.8272 989.805 25.5659 989.544 25.2352 989.352C24.9045 989.155 24.5365 989.056 24.1312 989.056C23.7259 989.056 23.3579 989.155 23.0272 989.352C22.6965 989.544 22.4352 989.805 22.2432 990.136C22.0512 990.461 21.9552 990.829 21.9552 991.24V995.232C21.9552 995.637 22.0512 996.005 22.2432 996.336C22.4352 996.661 22.6965 996.923 23.0272 997.12C23.3579 997.312 23.7259 997.408 24.1312 997.408ZM35.3024 999V997.096H30.1984V995.296L33.8864 987.48H36.0864L32.3984 995.296H35.3024V992.296H37.2544V995.296H38.3344V997.096H37.2544V999H35.3024Z" fill="#FCFAFF"/>
</svg>
